<?xml-stylesheet type="text/css" href="diagram.css" ?>
<svg xmlns="http://www.w3.org/2000/svg" viewBox="-20 -20 910 805" pointer-events="none">
  <script href="diagram.js"/>
  <style>
    rect.title { height:26px; x:4.5px; fill:#FFF; }
    text.title { font-size:16px; text-anchor:start; }
    .footnote  { font-size:12px; font-family:"Roboto"; font-style:italic; }
    .footcode  { font-size:12px; }
    ellipse    { rx:60px; ry:20px; }
  </style>
  <defs>
    <marker id="arrowhead" orient="auto" markerUnits="userSpaceOnUse"
            markerWidth="11" markerHeight="11" refX="3.5" refY="4.5">
      <polygon points="0,0 9,4.5 0,9 2,4.5"/>
    </marker>
    <polygon id="rhombus" points="0.5,-20 70,0.5 0.5,20 -70,0.5" stroke="#000"/>
    <g id="common">
      <text x= "75" y="60" class="header">AFrame</text>
      <text x="275" y="60" class="header">Easies</text>
      <text x="635" y="60" class="header">Easy</text>
      <text x="795" y="60" class="header">EBase</text>

      <rect x="5" y="70" width="140" fill="#effff7"/>
      <path d="M75,110 V143.5"/>

      <ellipse cx="75" cy="170" class="palest-blue"/>
      <path d="M 75,190 V223.5"/>
      <path d="M135,170 H165 V90 H188"/>

      <use href="#rhombus" x="75" y="250" class="pale-pink"/>
      <text x="75" y="250">E.empty</text>
      <path d="M75,270 V303"/>

      <rect x= "5" y="310" class="bg-end" width="140"/>
      <text x="75" y="330" class="fg-end">clearTargets()</text>
      <!---->
      <rect x="195" y="70" width="160" class="pale-orange"/>
      <path d="M355, 90 H548"/>
      <path d="M275,110 V143.5"/>

      <ellipse cx="275" cy="170" class="palest-blue"/>
      <path d="M275,190 V303"/>

      <rect x="205" y="310" class="bg-end" width="140"/>
      <text x="275" y="330" class="fg-end">clearTargets()</text>
      <!---->
      <rect x="555" y="70" width="160" class="pale-orange"/>
      <path d="M635,110 V143.5"/>

      <ellipse cx="635" cy="170" class="palest-blue"/>
      <path d="M635,190 V223.5"/>
      <path d="M635,205 H475 V223.5"/>
      <path d="M635,205 H795 V223.5"/>
      <!---->
      <use href="#rhombus" x="475" y="250" class="pale-pink"/>
      <text x="475" y="250">E.empty</text>
      <path d="M475,270 V303"/>

      <use href="#rhombus"  class="bg-end1" x="635" y="250"/>
      <text x="635" y="250" class="fg-end1">undefined</text>

      <use href="#rhombus" x="795" y="250" class="pale-purple"/>
      <text x="795" y="250">else</text>
      <path d="M795,270 V303"/>

      <rect x="405" y="310" class="bg-end" width="140"/>
      <text x="475" y="330" class="fg-end">clearTargets()</text>

      <rect x="745" y="310" class="bg-end" width="100"/>
      <text x="795" y="330" class="fg-end">_apply()</text>
    </g>
  </defs>
  <rect id="bg"/>
  <rect id="frame" x="-19" y="-19"/>
  <!--~~~~~~~~~~~~~~~~~~~~~~~~~~~~~~~~~~~~~~~~~~~~~~~~~~~~~~~~~~~~~~~~~~~~~~~-->
  <rect y= "4.5" width="115" class="title"/>
  <text x="15" y="18" class="title">#animate()</text>
  <use href="#common"/>

  <text x= "75" y="90">#stop(_, true)</text>
  <text x="275" y="90">_reset(_, false)</text>
  <text x="635" y="90">_reset(_, false)</text>

  <text x= "75" y="170">#onArrival</text>
  <text x="275" y="170">#oneShot</text>
  <text x="635" y="170">#onArrival</text>

  <text x="75" y="250" class="super">        &#xB9;</text>
  <text x= "5" y="370" class="footcode" style="text-anchor:start"
  >&#xB9;&#x2006;.oneShot&#x2006;=&#x2006;true;<tspan class="footnote"> is an alias for </tspan>.onArrival&#x2006;=&#x2006;&#x2006;E.empty;
  </text>

  <ellipse cx="475" cy="170" class="palest-blue"/>
  <text x="475" y="170">#oneShot</text>
  <path d="M575,170 H540.5"/>
  <path d="M415,170 H375 V330 H398"/>
  <text x="475" y="170" class="super">         &#xB2;</text>
  <text x="475" y="370" class="footcode">&#xB2;&#x2006;if (!E.empty)</text>
<!--~~~~~~~~~~~~~~~~~~~~~~~~~~~~~~~~~~~~~~~~~~~~~~~~~~~~~~~~~~~~~~~~~~~~~~~-->
  <path d="M0,395 H870" stroke-width="2" style="marker-end:none"/>
  <!---->
  <rect y="414.5" width="412" class="title"/>
  <text x= "15" y="428" class="title">arrive() stop() return() pause() cancel()</text>
  <use href="#common" y="410"/>

  <text x= "75" y="500">#stop(sts, _)</text>
  <text x="275" y="500">_reset(sts, true)</text>
  <text x="635" y="500">_reset(sts, true)</text>

  <text x= "75" y="580">forceIt</text>
  <text x="275" y="580">forceIt</text>
  <text x="635" y="580">forceIt</text>
</svg>